<?xml version="1.0" standalone="no"?><!-- Generator: Gravit.io --><svg xmlns="http://www.w3.org/2000/svg" xmlns:xlink="http://www.w3.org/1999/xlink" style="isolation:isolate" viewBox="0 0 1862.142 143.623" width="100%" height="100%"><defs><clipPath id="_clipPath_0tLHXShOFmJw8k5OjpMBmH81BmRkDSIc"><rect width="100%" height="100%"/></clipPath></defs><g clip-path="url(#_clipPath_0tLHXShOFmJw8k5OjpMBmH81BmRkDSIc)"><clipPath id="_clipPath_qqGYecKUfYoGPIgtj8TxGAnlUPHlxHwE"><path d=" M 0 0 L 0 143.623 L 1862.142 143.623 L 1862.142 0 L 0 0 Z " fill="rgb(255,255,255)"/></clipPath><g clip-path="url(#_clipPath_qqGYecKUfYoGPIgtj8TxGAnlUPHlxHwE)"><path d=" M 219.607 35.837 L 231.694 35.837 L 231.694 87.184 C 231.694 91.876 232.07 95.99 232.81 99.412 C 233.519 102.688 234.653 105.408 236.181 107.492 C 237.68 109.54 239.547 111.026 241.889 112.034 C 244.287 113.067 247.244 113.592 250.682 113.592 C 251.8 113.592 252.935 113.506 254.056 113.335 C 255.208 113.161 256.314 112.939 257.343 112.675 C 258.284 112.435 259.122 112.128 259.83 111.766 C 260.583 111.384 260.941 111.07 261.109 110.873 C 261.157 110.817 261.401 110.495 261.602 109.5 C 261.787 108.579 261.881 107.273 261.881 105.618 C 261.881 104.604 261.834 103.76 261.742 103.111 C 261.693 102.771 261.645 102.496 261.601 102.275 C 261.02 102.574 260.352 102.88 259.61 103.188 C 258.794 103.528 257.88 103.845 256.819 104.153 C 255.667 104.49 254.358 104.66 252.93 104.66 C 247.126 104.66 244.388 101.6 243.113 99.033 C 241.477 95.743 240.682 91.132 240.682 84.938 L 240.682 35.837 L 261.201 35.837 C 261.242 35.781 261.301 35.688 261.37 35.544 C 261.56 35.149 261.881 34.113 261.881 31.604 C 261.881 30.522 261.833 29.609 261.738 28.889 C 261.639 28.142 261.493 27.71 261.389 27.48 C 261.349 27.391 261.313 27.326 261.286 27.28 L 240.682 27.279 L 240.682 5.125 C 240.682 5.06 240.67 5.016 240.641 4.963 L 240.641 4.963 C 240.639 4.963 240.575 4.884 240.371 4.765 C 240.266 4.703 239.928 4.544 239.128 4.425 C 238.375 4.317 237.369 4.262 236.148 4.262 C 234.979 4.262 234 4.317 233.239 4.426 C 232.455 4.543 232.075 4.705 231.919 4.79 C 231.771 4.874 231.711 4.929 231.702 4.938 C 231.728 4.917 231.694 4.995 231.694 5.125 L 231.694 27.279 L 219.548 27.279 C 219.533 27.308 219.515 27.347 219.495 27.395 C 219.388 27.661 219.233 28.145 219.1 28.956 C 218.985 29.647 218.927 30.538 218.927 31.604 C 218.927 34.113 219.247 35.149 219.437 35.543 C 219.508 35.688 219.566 35.781 219.607 35.837 Z  M 250.682 117.854 C 246.661 117.854 243.135 117.213 240.203 115.949 C 237.186 114.649 234.675 112.652 232.742 110.011 C 230.86 107.441 229.481 104.178 228.645 100.313 C 227.84 96.596 227.432 92.179 227.432 87.184 L 227.432 40.099 L 219.446 40.099 C 218.496 40.099 216.734 39.748 215.6 37.397 C 214.971 36.096 214.665 34.201 214.665 31.604 C 214.665 30.287 214.74 29.194 214.895 28.263 C 215.055 27.288 215.268 26.482 215.544 25.798 C 215.927 24.851 216.492 24.135 217.226 23.673 C 217.923 23.237 218.695 23.017 219.526 23.017 L 227.432 23.017 L 227.432 5.125 C 227.432 4.353 227.604 3.622 227.941 2.951 C 228.321 2.191 228.966 1.554 229.856 1.061 C 230.593 0.654 231.497 0.377 232.624 0.209 C 233.595 0.07 234.777 0 236.148 0 C 237.57 0 238.78 0.07 239.743 0.208 C 240.896 0.379 241.802 0.665 242.52 1.085 C 243.327 1.557 243.938 2.149 244.34 2.846 C 244.742 3.553 244.944 4.317 244.944 5.125 L 244.944 23.017 L 261.361 23.017 C 262.22 23.017 263.001 23.251 263.681 23.711 C 264.333 24.157 264.864 24.829 265.268 25.715 C 265.599 26.443 265.826 27.299 265.964 28.33 C 266.082 29.236 266.143 30.337 266.143 31.604 C 266.143 34.201 265.837 36.096 265.207 37.397 C 264.074 39.748 262.312 40.099 261.361 40.099 L 244.944 40.099 L 244.944 84.938 C 244.944 90.382 245.611 94.486 246.929 97.136 C 248.035 99.362 249.941 100.399 252.93 100.399 C 253.954 100.399 254.862 100.286 255.626 100.062 C 256.521 99.801 257.309 99.53 257.971 99.253 C 258.65 98.971 259.241 98.699 259.734 98.442 C 261.292 97.621 262.827 97.544 264.081 98.351 C 264.76 98.793 265.242 99.482 265.527 100.405 C 265.695 100.962 265.837 101.647 265.96 102.508 C 266.081 103.357 266.143 104.403 266.143 105.618 C 266.143 107.582 266.023 109.127 265.779 110.341 C 265.489 111.781 265.019 112.862 264.344 113.649 C 263.725 114.369 262.881 114.996 261.765 115.563 C 260.781 116.066 259.647 116.484 258.397 116.805 C 257.232 117.103 255.988 117.352 254.696 117.549 C 253.363 117.751 252.014 117.854 250.682 117.854 Z " fill="rgb(242, 242, 242)"/></g><clipPath id="_clipPath_wVvOiJpczrjsFwtcSESq9BuR3Gguimxs"><path d=" M 0 0 L 0 143.623 L 1862.142 143.623 L 1862.142 0 L 0 0 Z " fill="rgb(255,255,255)"/></clipPath><g clip-path="url(#_clipPath_wVvOiJpczrjsFwtcSESq9BuR3Gguimxs)"><path d=" M 332.63 112.204 C 332.657 112.217 332.689 112.232 332.727 112.249 C 332.89 112.321 333.289 112.458 334.138 112.565 C 334.904 112.66 335.923 112.709 337.164 112.709 C 338.349 112.709 339.342 112.66 340.113 112.565 C 340.959 112.458 341.359 112.32 341.521 112.249 C 341.558 112.233 341.589 112.217 341.617 112.204 L 341.618 68.346 C 341.618 63.347 341.191 59.043 340.352 55.557 C 339.541 52.189 338.19 49.22 336.338 46.734 C 334.515 44.29 332.083 42.301 329.11 40.827 C 326.13 39.348 322.355 38.599 317.892 38.599 C 314.34 38.599 310.747 39.508 307.212 41.3 C 303.594 43.135 299.927 46 296.314 49.818 L 292.636 53.704 L 292.636 5.14 C 292.609 5.125 292.576 5.11 292.535 5.091 C 292.376 5.021 291.977 4.884 291.127 4.777 C 290.367 4.681 289.348 4.633 288.101 4.633 C 286.907 4.633 285.916 4.681 285.154 4.777 C 284.332 4.881 283.891 5.015 283.666 5.109 C 283.657 5.113 283.648 5.117 283.641 5.12 L 283.648 112.225 C 283.653 112.227 283.659 112.23 283.665 112.232 C 283.891 112.327 284.332 112.46 285.157 112.565 C 285.922 112.66 286.915 112.709 288.101 112.709 C 289.34 112.709 290.36 112.66 291.132 112.565 C 291.977 112.458 292.376 112.32 292.539 112.249 C 292.576 112.233 292.607 112.217 292.635 112.204 L 292.636 61.095 L 293.103 60.512 C 296.851 55.826 300.507 52.204 303.972 49.747 C 307.643 47.141 311.407 45.82 315.162 45.82 C 318.048 45.82 320.648 46.38 322.89 47.485 C 325.168 48.609 327.051 50.255 328.489 52.376 C 329.854 54.396 330.9 56.807 331.601 59.548 C 332.284 62.227 332.63 65.754 332.63 70.033 L 332.63 112.204 Z  M 337.164 116.97 C 335.75 116.97 334.553 116.911 333.609 116.794 C 332.53 116.659 331.679 116.446 331.001 116.147 C 330.171 115.778 329.528 115.285 329.092 114.682 C 328.621 114.036 328.368 113.226 328.368 112.351 L 328.368 70.033 C 328.368 66.109 328.066 62.937 327.471 60.602 C 326.893 58.339 326.047 56.375 324.96 54.765 C 323.929 53.243 322.635 52.111 321.005 51.308 C 319.355 50.494 317.389 50.082 315.162 50.082 C 312.308 50.082 309.373 51.138 306.438 53.222 C 303.437 55.352 300.23 58.502 296.898 62.594 L 296.898 112.351 C 296.898 113.223 296.646 114.031 296.168 114.687 C 295.732 115.288 295.091 115.78 294.264 116.147 C 293.587 116.446 292.735 116.658 291.661 116.794 C 290.711 116.911 289.515 116.97 288.101 116.97 C 286.739 116.97 285.571 116.911 284.627 116.794 C 283.562 116.66 282.71 116.454 282.017 116.162 C 281.102 115.779 280.421 115.244 279.997 114.572 C 279.594 113.946 279.387 113.193 279.387 112.351 L 279.387 5.071 C 279.387 4.259 279.58 3.517 279.961 2.868 C 280.379 2.149 281.072 1.577 282.015 1.18 C 282.71 0.889 283.562 0.683 284.622 0.548 C 285.574 0.43 286.712 0.371 288.101 0.371 C 289.544 0.371 290.708 0.43 291.658 0.548 C 292.735 0.685 293.587 0.896 294.264 1.195 C 295.121 1.577 295.777 2.105 296.218 2.766 C 296.669 3.443 296.898 4.219 296.898 5.071 L 296.898 43.322 C 299.67 40.873 302.479 38.922 305.285 37.498 C 309.423 35.401 313.665 34.338 317.892 34.338 C 323.018 34.338 327.429 35.236 331.003 37.008 C 334.584 38.784 337.528 41.199 339.756 44.188 C 341.954 47.138 343.549 50.627 344.495 54.558 C 345.414 58.372 345.88 63.011 345.88 68.346 L 345.88 112.351 C 345.88 113.223 345.628 114.031 345.151 114.687 C 344.714 115.288 344.073 115.78 343.246 116.147 C 342.569 116.446 341.718 116.658 340.643 116.794 C 339.693 116.911 338.524 116.97 337.164 116.97 Z " fill="rgb(242, 242, 242)"/></g><clipPath id="_clipPath_tlZxUGCZkmHxZrCtg6ufq9ebfD52or98"><path d=" M 0 0 L 0 143.623 L 1862.142 143.623 L 1862.142 0 L 0 0 Z " fill="rgb(255,255,255)"/></clipPath><g clip-path="url(#_clipPath_tlZxUGCZkmHxZrCtg6ufq9ebfD52or98)"><path d=" M 379.057 46.879 L 414.135 46.879 C 414.053 38.349 412.585 31.544 409.763 26.632 C 406.888 21.63 402.749 19.199 397.11 19.199 C 394.252 19.199 391.828 19.934 389.7 21.447 C 387.485 23.024 385.598 25.154 384.092 27.78 C 382.534 30.498 381.304 33.728 380.439 37.38 C 379.72 40.415 379.257 43.602 379.057 46.879 Z  M 418.355 51.141 L 374.646 51.141 L 374.701 48.956 C 374.812 44.615 375.347 40.39 376.292 36.398 C 377.252 32.346 378.633 28.732 380.395 25.66 C 382.21 22.496 384.51 19.91 387.23 17.974 C 390.065 15.959 393.39 14.937 397.11 14.937 C 404.306 14.937 409.806 18.157 413.458 24.508 C 416.896 30.493 418.555 38.748 418.388 49.045 L 418.355 51.141 Z  M 397.789 4.377 C 392.914 4.377 388.454 5.604 384.534 8.023 C 380.559 10.476 377.106 14.068 374.273 18.698 C 371.384 23.415 369.134 29.268 367.587 36.096 C 366.024 42.994 365.231 50.895 365.231 59.581 C 365.231 68.735 365.997 76.854 367.51 83.712 C 368.998 90.473 371.222 96.151 374.119 100.586 C 376.957 104.933 380.489 108.25 384.616 110.439 C 388.755 112.638 393.673 113.752 399.234 113.752 C 402.479 113.752 405.567 113.405 408.411 112.72 C 411.325 112.018 413.915 111.219 416.11 110.342 C 418.274 109.478 420.034 108.599 421.343 107.731 C 423.018 106.622 423.377 106.223 423.413 106.18 C 423.584 105.931 423.752 105.625 423.881 105.309 C 424 105.018 424.088 104.666 424.145 104.269 C 424.219 103.738 424.281 103.134 424.33 102.457 C 424.38 101.775 424.405 100.958 424.405 100.027 C 424.405 98.728 424.367 97.608 424.29 96.699 C 424.21 95.735 424.099 95.203 424.019 94.922 C 423.748 95.035 423.302 95.255 422.635 95.678 C 421.305 96.524 419.615 97.467 417.613 98.481 C 415.543 99.531 413.076 100.486 410.28 101.32 C 407.407 102.181 404.106 102.618 400.473 102.618 C 395.752 102.618 391.669 101.63 388.342 99.684 C 385.017 97.739 382.286 94.924 380.225 91.318 C 378.229 87.827 376.787 83.613 375.942 78.794 C 375.118 74.101 374.701 68.758 374.701 62.913 L 374.701 60.782 L 424.424 60.782 C 424.861 60.782 425.538 60.665 426.374 59.657 C 426.778 59.17 427.456 57.871 427.456 54.641 L 427.456 51.195 C 427.456 44.627 426.863 38.37 425.692 32.601 C 424.54 26.924 422.718 21.924 420.279 17.74 C 417.891 13.647 414.809 10.348 411.117 7.937 C 407.5 5.575 403.015 4.377 397.789 4.377 Z  M 399.234 118.014 C 392.97 118.014 387.378 116.732 382.616 114.204 C 377.846 111.671 373.788 107.874 370.549 102.917 C 367.37 98.047 364.947 91.894 363.348 84.629 C 361.77 77.471 360.97 69.043 360.97 59.581 C 360.97 50.579 361.797 42.36 363.43 35.153 C 365.081 27.872 367.507 21.587 370.638 16.473 C 373.823 11.267 377.745 7.204 382.297 4.396 C 386.9 1.555 392.112 0.115 397.789 0.115 C 403.857 0.115 409.125 1.546 413.447 4.369 C 417.699 7.147 421.235 10.923 423.96 15.592 C 426.636 20.181 428.624 25.618 429.868 31.754 C 431.096 37.801 431.718 44.343 431.718 51.195 L 431.718 54.641 C 431.718 58.174 431.043 60.705 429.653 62.379 C 427.827 64.582 425.802 65.044 424.424 65.044 L 378.982 65.044 C 379.07 69.809 379.459 74.178 380.139 78.057 C 380.899 82.39 382.173 86.14 383.925 89.202 C 385.611 92.154 387.82 94.442 390.494 96.005 C 393.16 97.566 396.518 98.356 400.473 98.356 C 403.692 98.356 406.581 97.98 409.059 97.238 C 411.614 96.475 413.843 95.615 415.687 94.679 C 417.566 93.727 419.134 92.853 420.348 92.081 C 422.024 91.017 423.261 90.542 424.358 90.542 C 425.263 90.542 426.107 90.872 426.796 91.497 C 427.382 92.03 427.817 92.759 428.091 93.665 C 428.299 94.359 428.444 95.233 428.538 96.344 C 428.623 97.371 428.667 98.609 428.667 100.027 C 428.667 101.061 428.638 101.982 428.581 102.768 C 428.523 103.549 428.451 104.245 428.366 104.861 C 428.26 105.609 428.079 106.3 427.828 106.92 C 427.577 107.53 427.259 108.114 426.878 108.659 C 426.526 109.162 425.898 109.825 423.697 111.283 C 422.126 112.326 420.161 113.313 417.691 114.3 C 415.307 115.251 412.521 116.114 409.409 116.864 C 406.238 117.626 402.814 118.014 399.234 118.014 Z " fill="rgb(242, 242, 242)"/></g><clipPath id="_clipPath_eIpojigcclJNtfavOTRBOzvdxo5ESwWW"><path d=" M 0 0 L 0 143.623 L 1862.142 143.623 L 1862.142 0 L 0 0 Z " fill="rgb(255,255,255)"/></clipPath><g clip-path="url(#_clipPath_eIpojigcclJNtfavOTRBOzvdxo5ESwWW)"><path d=" M 502.498 76.778 C 502.498 73.084 502.215 69.498 501.65 66.018 C 501.084 62.539 500.101 59.462 498.7 56.784 C 497.3 54.107 495.442 51.954 493.126 50.32 C 490.81 48.688 487.929 47.871 484.482 47.871 C 482.758 47.871 481.061 48.111 479.392 48.593 C 477.722 49.075 476.026 49.878 474.302 51.003 C 472.579 52.126 470.787 53.572 468.929 55.338 C 467.071 57.105 465.092 59.327 462.991 62.004 L 462.991 90.831 C 466.654 95.275 470.155 98.659 473.494 100.988 C 476.833 103.316 480.307 104.481 483.916 104.481 C 487.255 104.481 490.11 103.679 492.48 102.072 C 494.85 100.466 496.776 98.338 498.256 95.689 C 499.737 93.039 500.814 90.067 501.488 86.775 C 502.161 83.483 502.498 80.15 502.498 76.778 Z  M 516.229 75.253 C 516.229 81.515 515.547 87.151 514.181 92.155 C 512.816 97.161 510.809 101.43 508.159 104.963 C 505.51 108.496 502.257 111.2 498.403 113.072 C 494.548 114.946 490.132 115.883 485.154 115.883 C 482.852 115.883 480.724 115.655 478.771 115.2 C 476.815 114.745 474.902 114.01 473.029 112.993 C 471.154 111.976 469.281 110.691 467.408 109.139 C 465.534 107.587 463.553 105.714 461.466 103.517 L 461.466 112.351 C 461.466 112.779 461.358 113.153 461.145 113.474 C 460.93 113.796 460.583 114.051 460.1 114.237 C 459.619 114.425 459.017 114.571 458.294 114.68 C 457.571 114.786 456.648 114.839 455.524 114.839 C 454.452 114.839 453.543 114.786 452.794 114.68 C 452.043 114.571 451.429 114.425 450.947 114.237 C 450.465 114.051 450.144 113.796 449.983 113.474 C 449.822 113.153 449.743 112.779 449.743 112.351 L 449.743 5.071 C 449.743 4.644 449.835 4.268 450.023 3.948 C 450.21 3.626 450.558 3.359 451.067 3.144 C 451.576 2.931 452.258 2.771 453.114 2.663 C 453.97 2.555 455.042 2.502 456.327 2.502 C 457.664 2.502 458.762 2.555 459.619 2.663 C 460.475 2.771 461.145 2.931 461.626 3.144 C 462.109 3.359 462.456 3.626 462.671 3.948 C 462.883 4.268 462.991 4.644 462.991 5.071 L 462.991 48.353 C 465.132 46.158 467.207 44.311 469.214 42.812 C 471.223 41.314 473.189 40.095 475.117 39.158 C 477.044 38.223 478.971 37.54 480.898 37.11 C 482.825 36.683 484.859 36.468 487 36.468 C 492.247 36.468 496.729 37.512 500.451 39.6 C 504.171 41.687 507.196 44.485 509.524 47.992 C 511.853 51.498 513.552 55.607 514.624 60.317 C 515.694 65.028 516.229 70.007 516.229 75.253 Z " fill="rgb(242, 242, 242)"/></g><clipPath id="_clipPath_1mcIxmLPyPDygvrgdc1nDRcStOrxNNlK"><path d=" M 0 0 L 0 143.623 L 1862.142 143.623 L 1862.142 0 L 0 0 Z " fill="rgb(255,255,255)"/></clipPath><g clip-path="url(#_clipPath_1mcIxmLPyPDygvrgdc1nDRcStOrxNNlK)"><path d=" M 549.392 112.351 C 549.392 112.779 549.284 113.14 549.072 113.434 C 548.857 113.729 548.51 113.984 548.027 114.197 C 547.546 114.411 546.876 114.571 546.02 114.68 C 545.163 114.786 544.064 114.839 542.728 114.839 C 541.443 114.839 540.371 114.786 539.515 114.68 C 538.658 114.571 537.976 114.411 537.468 114.197 C 536.959 113.984 536.611 113.729 536.424 113.434 C 536.236 113.14 536.143 112.779 536.143 112.351 L 536.143 5.071 C 536.143 4.644 536.236 4.268 536.424 3.948 C 536.611 3.626 536.959 3.359 537.468 3.144 C 537.976 2.931 538.658 2.771 539.515 2.663 C 540.371 2.555 541.443 2.502 542.728 2.502 C 544.064 2.502 545.163 2.555 546.02 2.663 C 546.876 2.771 547.546 2.931 548.027 3.144 C 548.51 3.359 548.857 3.626 549.072 3.948 C 549.284 4.268 549.392 4.644 549.392 5.071 L 549.392 112.351 Z " fill="rgb(242, 242, 242)"/></g><clipPath id="_clipPath_XjuF0Kbpax15KPVX88vZ5ImnObOTVUik"><path d=" M 0 0 L 0 143.623 L 1862.142 143.623 L 1862.142 0 L 0 0 Z " fill="rgb(255,255,255)"/></clipPath><g clip-path="url(#_clipPath_XjuF0Kbpax15KPVX88vZ5ImnObOTVUik)"><path d=" M 633.224 112.269 C 633.224 112.699 633.116 113.072 632.903 113.394 C 632.689 113.716 632.328 113.984 631.819 114.197 C 631.31 114.411 630.601 114.571 629.691 114.68 C 628.78 114.786 627.629 114.839 626.238 114.839 C 624.792 114.839 623.601 114.799 622.664 114.719 C 621.727 114.638 620.939 114.504 620.296 114.317 C 619.654 114.13 619.131 113.864 618.73 113.515 C 618.329 113.168 617.967 112.752 617.647 112.269 L 587.133 72.281 L 587.133 112.351 C 587.133 112.779 587.025 113.14 586.811 113.434 C 586.598 113.729 586.25 113.984 585.768 114.197 C 585.287 114.411 584.616 114.571 583.761 114.68 C 582.904 114.786 581.805 114.839 580.468 114.839 C 579.183 114.839 578.111 114.786 577.256 114.68 C 576.399 114.571 575.716 114.411 575.209 114.197 C 574.699 113.984 574.351 113.729 574.164 113.434 C 573.976 113.14 573.884 112.779 573.884 112.351 L 573.884 5.071 C 573.884 4.644 573.976 4.268 574.164 3.948 C 574.351 3.626 574.699 3.359 575.209 3.144 C 575.716 2.931 576.399 2.771 577.256 2.663 C 578.111 2.555 579.183 2.502 580.468 2.502 C 581.805 2.502 582.904 2.555 583.761 2.663 C 584.616 2.771 585.287 2.931 585.768 3.144 C 586.25 3.359 586.598 3.626 586.811 3.948 C 587.025 4.268 587.133 4.644 587.133 5.071 L 587.133 70.434 L 614.434 40.402 C 614.862 39.869 615.318 39.426 615.799 39.078 C 616.282 38.73 616.856 38.436 617.526 38.195 C 618.195 37.954 618.984 37.793 619.894 37.713 C 620.804 37.633 621.903 37.592 623.187 37.592 C 624.524 37.592 625.649 37.633 626.56 37.713 C 627.469 37.793 628.205 37.927 628.767 38.114 C 629.33 38.303 629.731 38.543 629.972 38.838 C 630.213 39.132 630.333 39.519 630.333 40.002 C 630.333 40.644 630.159 41.286 629.811 41.929 C 629.463 42.571 628.888 43.321 628.085 44.177 L 601.907 70.354 L 631.297 108.496 C 631.992 109.407 632.488 110.142 632.783 110.705 C 633.076 111.266 633.224 111.788 633.224 112.269 Z " fill="rgb(242, 242, 242)"/></g><clipPath id="_clipPath_aMJOqQRUxjWlhN8Z2HXm5ZtxppnJdpGO"><path d=" M 0 0 L 0 143.623 L 1862.142 143.623 L 1862.142 0 L 0 0 Z " fill="rgb(255,255,255)"/></clipPath><g clip-path="url(#_clipPath_aMJOqQRUxjWlhN8Z2HXm5ZtxppnJdpGO)"><path d=" M 682.287 16.612 C 685.294 16.612 687.992 17.442 690.304 19.081 C 692.549 20.672 694.39 22.969 695.777 25.91 C 697.083 28.686 698.086 32.009 698.758 35.789 C 699.42 39.513 699.754 44.451 699.754 50.467 L 699.754 111.263 C 699.754 111.648 699.823 111.812 699.845 111.854 C 699.862 111.89 699.921 111.986 700.134 112.121 C 700.242 112.19 700.586 112.369 701.378 112.513 C 702.105 112.642 703.088 112.709 704.289 112.709 C 705.435 112.709 706.39 112.642 707.129 112.51 C 707.911 112.368 708.255 112.19 708.365 112.118 C 708.508 112.028 708.612 111.934 708.65 111.859 C 708.672 111.815 708.742 111.647 708.742 111.263 L 708.742 47.929 C 708.742 40.7 708.306 34.433 707.446 29.305 C 706.604 24.281 705.202 19.854 703.281 16.147 C 701.411 12.546 698.943 9.637 695.946 7.501 C 693.036 5.428 689.359 4.377 685.017 4.377 C 681.386 4.377 677.697 5.766 674.052 8.506 C 670.239 11.372 666.323 16.011 662.416 22.292 L 658.475 28.624 L 658.475 7.438 C 658.475 7.012 658.406 6.81 658.376 6.742 C 658.329 6.637 658.218 6.51 658.058 6.379 C 658.048 6.372 657.854 6.227 657.281 6.142 C 656.609 6.042 655.728 5.992 654.664 5.992 C 653.55 5.992 652.659 6.042 652.015 6.141 C 651.613 6.202 651.29 6.313 651.085 6.459 C 650.913 6.584 650.864 6.662 650.863 6.663 C 650.844 6.718 650.772 6.958 650.772 7.438 L 650.772 111.263 C 650.772 111.696 650.843 111.893 650.867 111.948 L 650.867 111.948 C 650.87 111.948 650.923 112.006 651.066 112.093 C 651.225 112.187 651.609 112.369 652.395 112.513 C 653.123 112.642 654.078 112.709 655.226 112.709 C 656.426 112.709 657.408 112.642 658.146 112.51 C 658.929 112.368 659.273 112.19 659.383 112.118 C 659.526 112.028 659.63 111.934 659.668 111.859 C 659.69 111.815 659.76 111.647 659.76 111.263 L 659.76 38.147 L 660.03 37.664 C 663.745 30.99 667.372 25.831 670.808 22.327 C 674.526 18.535 678.388 16.612 682.287 16.612 Z  M 704.289 116.97 C 702.838 116.97 701.606 116.882 700.623 116.707 C 699.473 116.498 698.568 116.174 697.846 115.716 C 697.034 115.199 696.428 114.547 696.041 113.776 C 695.679 113.066 695.492 112.216 695.492 111.263 L 695.492 50.467 C 695.492 44.701 695.18 40.013 694.562 36.535 C 693.956 33.124 693.067 30.161 691.921 27.725 C 690.852 25.458 689.479 23.72 687.84 22.558 C 686.24 21.425 684.423 20.874 682.287 20.874 C 679.577 20.874 676.738 22.367 673.851 25.311 C 670.762 28.461 667.456 33.15 664.022 39.256 L 664.022 111.263 C 664.022 112.212 663.837 113.06 663.471 113.782 C 663.082 114.55 662.477 115.201 661.671 115.714 C 660.948 116.174 660.042 116.498 658.901 116.706 C 657.907 116.882 656.675 116.97 655.226 116.97 C 653.829 116.97 652.624 116.882 651.641 116.707 C 650.508 116.501 649.604 116.186 648.867 115.744 C 647.977 115.207 647.339 114.512 646.973 113.678 C 646.668 112.997 646.511 112.181 646.511 111.263 L 646.511 7.438 C 646.511 6.564 646.639 5.786 646.891 5.123 C 647.2 4.308 647.775 3.592 648.599 2.998 C 649.363 2.451 650.292 2.093 651.369 1.928 C 652.24 1.795 653.316 1.73 654.664 1.73 C 655.935 1.73 657.025 1.796 657.906 1.926 C 659.057 2.098 660.008 2.48 660.735 3.064 C 661.433 3.63 661.946 4.284 662.271 5.013 C 662.581 5.714 662.737 6.528 662.737 7.438 L 662.737 14.243 C 665.646 10.354 668.577 7.291 671.491 5.099 C 675.892 1.793 680.442 0.115 685.017 0.115 C 690.263 0.115 694.772 1.433 698.418 4.03 C 701.972 6.562 704.88 9.978 707.063 14.184 C 709.191 18.287 710.734 23.138 711.649 28.599 C 712.548 33.961 713.004 40.465 713.004 47.929 L 713.004 111.263 C 713.004 112.212 712.818 113.06 712.453 113.782 C 712.065 114.55 711.459 115.201 710.653 115.714 C 709.929 116.174 709.024 116.498 707.883 116.706 C 706.889 116.882 705.683 116.97 704.289 116.97 Z " fill="rgb(242, 242, 242)"/></g><clipPath id="_clipPath_Lfy3o7y7LEMGVsfyMgeQZWv5muGWG2Wx"><path d=" M 0 0 L 0 143.623 L 1862.142 143.623 L 1862.142 0 L 0 0 Z " fill="rgb(255,255,255)"/></clipPath><g clip-path="url(#_clipPath_Lfy3o7y7LEMGVsfyMgeQZWv5muGWG2Wx)"><path d=" M 737.267 111.945 C 737.271 111.948 737.325 112.007 737.468 112.093 C 737.625 112.187 738.01 112.369 738.796 112.513 C 739.524 112.642 740.479 112.709 741.628 112.709 C 742.826 112.709 743.809 112.642 744.548 112.51 C 745.33 112.368 745.676 112.189 745.787 112.117 C 745.926 112.029 746.031 111.934 746.068 111.859 C 746.091 111.811 746.162 111.646 746.162 111.263 L 746.162 42.519 L 746.343 42.107 C 748.23 37.847 749.981 34.192 751.548 31.241 C 753.156 28.215 754.729 25.736 756.225 23.87 C 757.816 21.886 759.328 20.478 760.847 19.568 C 762.466 18.602 764.157 18.111 765.877 18.111 C 767.212 18.111 768.483 18.301 769.655 18.674 C 770.699 19.007 771.651 19.365 772.486 19.739 C 773.298 20.1 774.058 20.477 774.746 20.861 C 774.753 20.866 774.761 20.87 774.768 20.874 C 774.781 20.825 774.794 20.772 774.808 20.717 C 774.895 20.363 775.01 19.678 775.07 18.413 C 775.122 17.277 775.149 15.873 775.149 14.244 C 775.149 12.498 775.134 11.112 775.109 10.086 C 775.083 9.13 775.037 8.423 774.971 7.986 C 774.892 7.451 774.814 7.141 774.762 6.973 C 774.761 6.971 774.719 6.85 774.517 6.609 C 774.515 6.606 774.319 6.378 773.559 5.999 C 772.882 5.665 772.105 5.356 771.251 5.084 C 770.409 4.815 769.603 4.63 768.855 4.533 C 768.068 4.429 767.366 4.377 766.76 4.377 C 765.473 4.377 764.173 4.622 762.898 5.105 C 761.649 5.577 760.34 6.469 759.006 7.758 C 757.573 9.144 756.01 11.103 754.361 13.578 C 752.683 16.102 750.855 19.43 748.93 23.468 L 744.875 22.55 L 744.875 7.438 C 744.875 7.012 744.807 6.811 744.777 6.744 C 744.73 6.636 744.619 6.51 744.459 6.379 C 744.436 6.362 744.243 6.225 743.682 6.142 C 743.01 6.042 742.129 5.992 741.066 5.992 C 739.951 5.992 739.059 6.042 738.415 6.141 C 738.014 6.202 737.691 6.313 737.486 6.459 C 737.314 6.584 737.265 6.662 737.264 6.663 C 737.244 6.719 737.174 6.956 737.174 7.438 L 737.174 111.263 C 737.174 111.699 737.245 111.894 737.267 111.945 Z  M 741.628 116.97 C 740.231 116.97 739.025 116.882 738.041 116.709 C 736.909 116.501 736.005 116.187 735.269 115.744 C 734.375 115.204 733.738 114.51 733.374 113.676 C 733.066 112.993 732.913 112.198 732.913 111.263 L 732.913 7.438 C 732.913 6.55 733.037 5.791 733.293 5.121 C 733.601 4.308 734.177 3.592 735 2.998 C 735.764 2.451 736.693 2.093 737.769 1.928 C 738.64 1.795 739.718 1.73 741.066 1.73 C 742.336 1.73 743.426 1.796 744.307 1.926 C 745.456 2.097 746.407 2.479 747.136 3.063 C 747.836 3.632 748.35 4.287 748.673 5.017 C 748.981 5.711 749.137 6.526 749.137 7.438 L 749.137 13.906 C 749.707 12.936 750.266 12.039 750.813 11.217 C 752.631 8.487 754.391 6.293 756.044 4.694 C 757.799 2.999 759.597 1.796 761.389 1.119 C 763.149 0.454 764.956 0.115 766.76 0.115 C 767.553 0.115 768.443 0.18 769.408 0.308 C 770.403 0.437 771.461 0.677 772.547 1.024 C 773.603 1.361 774.581 1.751 775.453 2.182 C 776.51 2.708 777.272 3.261 777.787 3.875 C 778.299 4.491 778.64 5.089 778.833 5.712 C 778.975 6.17 779.09 6.709 779.186 7.358 C 779.28 7.976 779.338 8.81 779.369 9.976 C 779.396 11.031 779.411 12.452 779.411 14.244 C 779.411 15.938 779.383 17.407 779.327 18.611 C 779.266 19.923 779.141 20.942 778.948 21.731 C 778.723 22.648 778.421 23.371 778.023 23.941 C 776.932 25.522 774.928 25.864 772.657 24.576 C 772.093 24.262 771.448 23.941 770.751 23.631 C 770.056 23.321 769.251 23.019 768.359 22.734 C 767.609 22.495 766.772 22.373 765.877 22.373 C 764.925 22.373 763.995 22.652 763.036 23.225 C 761.975 23.861 760.802 24.975 759.551 26.536 C 758.221 28.195 756.794 30.45 755.312 33.24 C 753.843 36.006 752.2 39.431 750.423 43.421 L 750.423 111.263 C 750.423 112.214 750.238 113.064 749.869 113.785 C 749.483 114.549 748.879 115.199 748.074 115.713 C 747.347 116.174 746.442 116.498 745.302 116.706 C 744.308 116.882 743.075 116.97 741.628 116.97 Z " fill="rgb(242, 242, 242)"/></g><clipPath id="_clipPath_AyPoVfqCBlPa4mCmSbMqd3DXAjeHSyvQ"><path d=" M 0 0 L 0 143.623 L 1862.142 143.623 L 1862.142 0 L 0 0 Z " fill="rgb(255,255,255)"/></clipPath><g clip-path="url(#_clipPath_AyPoVfqCBlPa4mCmSbMqd3DXAjeHSyvQ)"><path d=" M 817.831 50.002 C 814.909 50.002 812.422 50.687 810.44 52.04 C 808.369 53.452 806.659 55.345 805.356 57.666 C 804 60.079 802.997 62.868 802.373 65.957 C 801.736 69.117 801.412 72.379 801.412 75.653 C 801.412 79.164 801.687 82.643 802.228 85.994 C 802.752 89.239 803.668 92.145 804.949 94.633 C 806.177 97.016 807.818 98.948 809.829 100.375 C 811.752 101.739 814.254 102.431 817.268 102.431 C 818.82 102.431 820.334 102.217 821.765 101.795 C 823.187 101.374 824.686 100.653 826.217 99.647 C 827.814 98.6 829.522 97.209 831.292 95.514 C 832.949 93.929 834.724 91.968 836.577 89.68 L 836.577 62.28 C 833.299 58.296 830.111 55.214 827.092 53.113 C 824.083 51.019 821.053 50.002 817.831 50.002 Z  M 817.268 106.692 C 813.352 106.692 810.02 105.736 807.363 103.85 C 804.789 102.026 802.703 99.58 801.161 96.583 C 799.672 93.697 798.616 90.362 798.02 86.673 C 797.443 83.099 797.15 79.391 797.15 75.653 C 797.15 72.096 797.502 68.55 798.196 65.115 C 798.908 61.588 800.066 58.381 801.64 55.58 C 803.266 52.68 805.42 50.303 808.038 48.519 C 810.741 46.675 814.036 45.74 817.831 45.74 C 821.896 45.74 825.831 47.044 829.527 49.615 C 833.023 52.048 836.669 55.604 840.367 60.184 L 840.839 60.77 L 840.839 91.174 L 840.375 91.757 C 838.236 94.443 836.172 96.744 834.239 98.592 C 832.281 100.466 830.369 102.02 828.555 103.211 C 826.673 104.445 824.794 105.344 822.971 105.882 C 821.147 106.42 819.229 106.692 817.268 106.692 Z  M 816.706 38.599 C 811.974 38.599 807.764 39.486 804.192 41.233 C 800.639 42.972 797.617 45.498 795.211 48.74 C 792.76 52.04 790.878 56.107 789.617 60.827 C 788.332 65.631 787.681 71.106 787.681 77.1 C 787.681 82.169 788.204 87.049 789.235 91.605 C 790.243 96.067 791.857 99.99 794.03 103.262 C 796.157 106.465 798.971 109.042 802.396 110.924 C 805.807 112.801 810.029 113.752 814.94 113.752 C 819.417 113.752 823.591 112.682 827.346 110.573 C 831.225 108.393 835.035 105.29 838.668 101.351 L 842.365 97.342 L 842.365 112.249 L 842.366 112.249 C 842.596 112.338 843.017 112.464 843.749 112.57 C 844.396 112.661 845.241 112.709 846.257 112.709 C 847.216 112.709 848.035 112.661 848.69 112.569 C 849.326 112.477 849.704 112.371 849.918 112.292 L 849.907 5.529 C 849.886 5.52 849.856 5.505 849.816 5.489 C 849.632 5.419 849.173 5.273 848.254 5.128 C 847.508 5.013 846.511 4.954 845.293 4.954 C 844.131 4.954 843.176 5.012 842.459 5.127 C 841.808 5.233 841.273 5.353 840.865 5.487 L 840.839 52.705 L 837.167 48.861 C 833.915 45.457 830.602 42.854 827.316 41.123 C 824.135 39.448 820.565 38.599 816.706 38.599 Z  M 814.94 118.014 C 809.302 118.014 804.39 116.885 800.342 114.659 C 796.309 112.442 792.99 109.401 790.48 105.62 C 788.019 101.914 786.2 97.515 785.077 92.544 C 783.977 87.681 783.419 82.484 783.419 77.1 C 783.419 70.734 784.119 64.889 785.498 59.726 C 786.9 54.485 789.016 49.933 791.789 46.199 C 794.605 42.405 798.148 39.447 802.32 37.405 C 806.477 35.37 811.318 34.338 816.706 34.338 C 821.264 34.338 825.502 35.352 829.302 37.353 C 831.742 38.638 834.177 40.331 836.577 42.409 L 836.577 5.393 C 836.577 4.66 836.758 3.955 837.114 3.295 C 837.559 2.47 838.316 1.863 839.367 1.495 C 840.033 1.262 840.821 1.075 841.782 0.92 C 842.737 0.767 843.885 0.692 845.293 0.692 C 846.749 0.692 847.933 0.766 848.912 0.918 C 849.929 1.078 850.728 1.274 851.361 1.518 C 852.25 1.866 852.945 2.396 853.428 3.096 C 853.919 3.809 854.168 4.58 854.168 5.393 L 854.168 112.351 C 854.168 113.158 853.977 113.897 853.598 114.547 C 853.166 115.284 852.495 115.842 851.602 116.208 C 850.981 116.463 850.225 116.653 849.292 116.788 C 848.435 116.909 847.415 116.97 846.257 116.97 C 845.043 116.97 843.995 116.909 843.147 116.789 C 842.218 116.655 841.462 116.47 840.827 116.222 C 839.932 115.878 839.241 115.348 838.778 114.652 C 838.331 113.981 838.104 113.206 838.104 112.351 L 838.104 107.928 C 835.291 110.497 832.388 112.627 829.433 114.288 C 825.033 116.761 820.156 118.014 814.94 118.014 Z " fill="rgb(242, 242, 242)"/></g><clipPath id="_clipPath_ntVN6XsvbuQns4weQZLTQk81KwA38Uls"><path d=" M 0 0 L 0 143.623 L 1862.142 143.623 L 1862.142 0 L 0 0 Z " fill="rgb(255,255,255)"/></clipPath><g clip-path="url(#_clipPath_ntVN6XsvbuQns4weQZLTQk81KwA38Uls)"><path d=" M 854.168 136.52 C 854.168 140.443 850.309 143.623 845.547 143.623 L 236.556 143.623 C 231.794 143.623 227.934 140.443 227.934 136.52 L 227.934 136.52 C 227.934 132.598 231.794 129.418 236.556 129.418 L 845.547 129.418 C 850.309 129.418 854.168 132.598 854.168 136.52 L 854.168 136.52 Z " fill="rgb(242, 242, 242)"/></g><path d=" M 0 0 L 0 143.623 L 1862.142 143.623 L 1862.142 0 L 0 0 Z " fill="none"/></g></svg>
